<svg width="120" height="91" viewBox="0 0 120 91" fill="none" xmlns="http://www.w3.org/2000/svg">
<path d="M0.0043308 56.7263C-0.0346231 58.0267 0.191107 59.2608 0.604613 60.4481C1.4514 61.7559 2.34595 62.9681 3.30586 64.0497L7.32773 68.2517L12.4301 71.8533L18.1327 75.5751L24.4357 78.9967L29.7181 81.2777L37.0415 84.1591L45.8656 86.8603L53.5492 88.7212L61.833 90.1018L68.5561 90.582L74.4989 90.8221L80.4416 90.462L86.2643 89.6816L90.6464 88.7212L96.6492 86.8003L102.973 83.7916L107.85 80.4228C112.034 76.55 112.056 76.5546 112.832 75.5575C116.718 71.4824 119.17 66.8607 120 61.0878C119.963 58.8469 119.193 56.8271 118.439 54.8054C117.992 53.6065 117.358 52.4802 116.698 51.3838C116.017 50.2519 115.268 49.1535 114.417 48.1423C113.106 46.5831 110.095 43.8203 110.095 43.8203C110.095 43.8203 109.905 45.8623 109.795 46.8817C109.648 48.2439 109.551 49.6141 109.315 50.9636C109.209 51.5708 109.068 52.1728 108.895 52.7645C108.591 53.8032 107.814 55.8259 107.814 55.8259C107.814 55.8259 107.752 51.9415 107.634 50.0032C107.554 48.6796 107.447 47.3561 107.274 46.0414C107.028 44.1692 106.737 42.299 106.314 40.4588C105.926 38.7739 105.408 37.1204 104.873 35.4765C104.201 33.412 103.552 31.3293 102.652 29.3536C101.883 27.6664 100.892 26.0889 99.9507 24.4914C98.8375 22.6018 97.7951 20.6556 96.4691 18.9088C95.6984 17.8935 94.7549 17.0218 93.8879 16.0875C92.6169 14.7178 91.3977 13.2957 90.0461 12.0056C88.7117 10.7318 87.3088 9.5255 85.8442 8.4039C84.5751 7.43212 83.2513 6.52762 81.8823 5.70265C80.5254 4.88495 79.119 4.14509 77.6804 3.48162C76.351 2.86854 74.9806 2.34344 73.5985 1.86087C72.0985 1.33713 70.5943 0.791824 69.0364 0.480232C67.4784 0.168639 64.2942 0 64.2942 0C64.2942 0 66.8667 1.39217 68.1402 2.11127C69.5019 2.88019 70.8495 3.6738 72.1972 4.46693C73.4289 5.19178 74.6776 5.88988 75.8795 6.6631C77.2099 7.51894 78.5198 8.40995 79.7813 9.36435C80.6088 9.99036 81.4104 10.6521 82.1825 11.3453C83.0564 12.1298 83.8822 12.967 84.7036 13.8064C85.5849 14.7069 86.4594 15.6157 87.2848 16.5677C88.2265 17.6538 89.1719 18.7446 89.9861 19.9292C91.1796 21.6658 93.1675 25.3918 93.1675 25.3918C93.1675 25.3918 90.6135 22.1903 89.2657 20.6496C87.9887 19.1897 85.3039 16.3876 85.3039 16.3876C85.3039 16.3876 82.6544 14.0288 81.282 12.906C80.4209 12.2014 79.5445 11.5142 78.6408 10.865C77.0002 9.68649 75.341 8.52529 73.5985 7.50348C71.8925 6.5031 70.1292 5.59188 68.316 4.80223C66.5982 4.05412 64.8239 3.43392 63.0336 2.88134C61.1787 2.30883 59.2991 1.79764 57.391 1.44068C55.7467 1.13307 54.0763 0.971225 52.4086 0.840393C50.2329 0.669696 48.0479 0.573584 45.8656 0.600282C43.9012 0.62432 41.9353 0.742598 39.9829 0.960453C38.3711 1.14029 36.7413 1.29986 35.1806 1.74081C32.9763 2.36363 28.8237 4.35113 28.8237 4.35113C28.8237 4.35113 33.3031 4.24453 35.5408 4.32201C37.4457 4.38796 39.3554 4.48141 41.2435 4.7422C43.4281 5.04394 45.5942 5.49951 47.7265 6.06281C49.7208 6.5897 51.7067 7.18649 53.6092 7.98371C55.3343 8.70658 56.9434 9.68043 58.5915 10.5649C59.6806 11.1494 60.7896 11.703 61.833 12.3657C62.7284 12.9344 63.5822 13.5688 64.4142 14.2266C65.4936 15.08 66.5191 16.0005 67.5357 16.9279C68.602 17.9007 69.6689 18.8772 70.6571 19.9292C71.4833 20.8088 72.9982 22.6905 72.9982 22.6905C72.9982 22.6905 74.7122 24.871 75.6394 26.3522C76.4271 27.6106 76.6583 27.9015 77.1401 28.6933C77.7646 29.7195 78.3399 30.7747 78.941 31.8148C79.6004 32.9558 80.2898 34.08 80.9219 35.2364C81.6344 36.5399 82.3308 37.8538 82.9628 39.1982C83.657 40.6747 84.2819 42.1837 84.8837 43.7003C85.8036 46.0186 87.4649 50.7235 87.4649 50.7235C87.4649 50.7235 85.1446 46.1702 83.916 43.9301C82.776 41.8516 82.7392 41.7254 82.1224 40.6389C81.3651 39.3049 80.5854 37.9834 79.7813 36.677C78.9842 35.3818 78.1727 34.0947 77.3202 32.8352C76.4519 31.5523 75.5813 30.2675 74.619 29.0535C73.8086 28.0312 72.9123 27.08 72.0378 26.1121C71.2499 25.2402 70.4692 24.3602 69.6366 23.5309C68.6334 22.5316 67.5653 21.5995 66.5152 20.6496C65.6427 19.8604 64.7793 19.0598 63.874 18.3085C62.3925 17.0791 60.9016 15.8527 59.3119 14.7669C57.9262 13.8204 56.4617 12.9916 54.9898 12.1857C53.7341 11.498 52.4668 10.8222 51.1481 10.2648C49.5276 9.57986 47.8458 9.04585 46.1658 8.52395C44.8585 8.11787 43.5503 7.69035 42.2039 7.44345C40.978 7.21864 39.7271 7.14338 38.4822 7.08329C37.2031 7.02154 35.9195 7.0221 34.6404 7.08329C33.1747 7.15339 31.7037 7.24996 30.2584 7.50348C28.8339 7.75334 27.4327 8.13958 26.0564 8.58398C24.6456 9.03956 23.2671 9.59775 21.9145 10.2047C20.747 10.7287 19.559 11.2378 18.4929 11.9455C17.2272 12.7858 16.065 13.7925 15.0113 14.8869C14.0424 15.8932 12.4301 18.1884 12.4301 18.1884C8.02525 24.5194 5.34201 33.2607 3.18581 42.7398C4.242 45.3349 5.69886 47.0979 7.20767 49.1028C8.22187 50.4504 9.39653 51.6723 10.5692 52.8845C11.7206 54.0747 12.9311 55.2084 14.1709 56.3061C15.2777 57.286 16.4153 58.2333 17.5925 59.1274C18.8169 60.0575 20.0718 60.9515 21.3742 61.7687C22.6567 62.5732 24.0084 63.262 25.3361 63.9897C26.4508 64.6007 27.5493 65.2453 28.6976 65.7905C29.8725 66.3484 31.0884 66.8166 32.2993 67.2912C33.649 67.8202 35.0084 68.3261 36.3812 68.7919C37.5918 69.2027 38.8212 69.5558 40.0429 69.9325C41.2224 70.2961 42.3839 70.7271 43.5846 71.0129C44.6118 71.2575 45.6652 71.3751 46.706 71.5532C48.0062 71.7757 49.3035 72.0168 50.6078 72.2135C52.2644 72.4634 53.9262 72.6792 55.5901 72.8738C56.9685 73.035 58.3494 73.1751 59.732 73.294C61.4308 73.4401 63.131 73.5802 64.8344 73.6542C66.054 73.7072 67.2754 73.7041 68.4961 73.7141C70.0968 73.7272 71.6976 73.7141 73.2983 73.7141C75.0191 73.7141 76.7402 73.7422 78.4607 73.7141C80.3023 73.6841 83.9833 73.5341 83.9833 73.5341C83.9833 73.5341 79.8282 74.2594 77.7404 74.5545C76.4036 74.7435 75.0638 74.9206 73.7185 75.0347C71.7422 75.2024 69.7586 75.2848 67.7758 75.3349C65.6955 75.3874 63.6132 75.3877 61.5329 75.3349C59.1695 75.2748 56.8051 75.1761 54.4496 74.9747C52.2809 74.7893 50.1168 74.5324 47.9666 74.1944C45.7918 73.8525 43.6332 73.4086 41.4836 72.9338C39.3701 72.4669 37.2462 72.0196 35.1806 71.3731C33.4642 70.8358 31.8137 70.1063 30.1383 69.4522C28.5323 68.8251 26.9033 68.2498 25.3361 67.5313C23.2453 66.5728 21.2208 65.4722 19.2132 64.3498C17.7875 63.5527 16.3758 62.7265 15.0113 61.8286C13.8377 61.0564 12.6996 60.2289 11.5897 59.3675C10.4564 58.4878 9.35765 57.5625 8.28818 56.6062C7.3598 55.776 6.43147 54.9403 5.58692 54.025C4.468 52.8124 3.49546 51.4723 2.46548 50.1832C2.02071 49.6266 1.14486 48.5024 1.14486 48.5024C0.576833 50.0415 0.01899 51.6457 0.0043308 56.7263V56.7263Z" fill="white"/>
</svg>
