<svg width="286" height="91" viewBox="0 0 286 91" fill="none" xmlns="http://www.w3.org/2000/svg">
<path d="M0.604613 60.4481C0.191107 59.2608 -0.0346231 58.0267 0.0043308 56.7263C0.01899 51.6457 0.576833 50.0415 1.14486 48.5024C1.14486 48.5024 2.02071 49.6266 2.46548 50.1832C2.75744 50.5486 3.04479 50.9181 3.33216 51.2877C4.05858 52.2218 4.78517 53.1561 5.58692 54.025C6.43147 54.9403 7.3598 55.776 8.28818 56.6062C9.35765 57.5625 10.4564 58.4878 11.5897 59.3675C12.6996 60.2289 13.8377 61.0564 15.0113 61.8286C16.3758 62.7265 17.7875 63.5527 19.2132 64.3498C21.2208 65.4722 23.2453 66.5728 25.3361 67.5313C26.4861 68.0585 27.6693 68.5086 28.8523 68.9587C29.2816 69.1219 29.7108 69.2852 30.1383 69.4522C30.6086 69.6358 31.0769 69.8253 31.5452 70.0149C32.7454 70.5007 33.9459 70.9866 35.1806 71.3731C37.0536 71.9593 38.9744 72.3818 40.8919 72.8035C41.0892 72.8468 41.2864 72.8902 41.4836 72.9338C43.6332 73.4086 45.7918 73.8525 47.9666 74.1944C50.1168 74.5324 52.2809 74.7893 54.4496 74.9747C56.8051 75.1761 59.1695 75.2748 61.5329 75.3349C63.6132 75.3877 65.6955 75.3874 67.7758 75.3349C69.7586 75.2848 71.7422 75.2024 73.7185 75.0347C75.0638 74.9206 76.4035 74.7435 77.7404 74.5545C79.8282 74.2594 83.9833 73.534 83.9833 73.534C83.9833 73.534 80.3023 73.6842 78.4607 73.7141C77.3137 73.7328 76.1664 73.7266 75.0192 73.7204C74.4456 73.7173 73.8719 73.7141 73.2983 73.7141C72.7648 73.7141 72.2312 73.7156 71.6976 73.717C70.6304 73.7199 69.5632 73.7229 68.4961 73.7141C68.2648 73.7122 68.0335 73.7108 67.8022 73.7094C66.8126 73.7032 65.8229 73.6971 64.8344 73.6542C63.131 73.5802 61.4308 73.4401 59.732 73.294C58.3494 73.1751 56.9685 73.035 55.5901 72.8738C53.9262 72.6792 52.2644 72.4634 50.6078 72.2135C49.6877 72.0747 48.771 71.9139 47.8544 71.7531C47.4717 71.6859 47.089 71.6187 46.706 71.5532C46.3698 71.4957 46.0323 71.4444 45.6948 71.3932C44.9874 71.2859 44.28 71.1785 43.5846 71.0129C42.7644 70.8177 41.9625 70.5547 41.1607 70.2917C40.7887 70.1697 40.4167 70.0477 40.0429 69.9325C39.6891 69.8234 39.3346 69.7163 38.9801 69.6092C38.1107 69.3465 37.2412 69.0837 36.3812 68.7919C35.0084 68.3261 33.649 67.8202 32.2993 67.2912C32.2108 67.2565 32.1222 67.2219 32.0336 67.1872C30.9108 66.7477 29.7866 66.3076 28.6976 65.7905C27.8379 65.3823 27.0061 64.9184 26.1744 64.4546C25.8953 64.2989 25.6162 64.1432 25.3361 63.9897C25.0001 63.8055 24.6626 63.6239 24.3251 63.4422C23.3288 62.906 22.3322 62.3696 21.3742 61.7687C20.0718 60.9515 18.8169 60.0575 17.5925 59.1274C16.4153 58.2333 15.2777 57.286 14.1709 56.3061C12.9311 55.2084 11.7206 54.0747 10.5692 52.8845C9.39653 51.6723 8.22187 50.4504 7.20767 49.1028C7.03698 48.876 6.86695 48.6522 6.69809 48.4301C5.37435 46.6884 4.12251 45.0413 3.18581 42.7398C5.34201 33.2607 8.02525 24.5194 12.4301 18.1884C12.4301 18.1884 14.0424 15.8932 15.0113 14.8869C16.065 13.7925 17.2272 12.7858 18.4929 11.9455C19.4669 11.2989 20.5426 10.8181 21.6115 10.3403C21.7126 10.2952 21.8136 10.25 21.9145 10.2047C23.2671 9.59775 24.6456 9.03956 26.0564 8.58398C27.4327 8.13958 28.8339 7.75335 30.2584 7.50348C31.7037 7.24996 33.1747 7.15339 34.6404 7.08329C35.9195 7.0221 37.2031 7.02154 38.4822 7.08329C39.7271 7.14338 40.978 7.21864 42.2039 7.44345C43.4172 7.66594 44.5995 8.03511 45.778 8.40309C45.9073 8.44345 46.0365 8.48381 46.1658 8.52395C47.8458 9.04585 49.5276 9.57986 51.1481 10.2648C52.4669 10.8222 53.7341 11.498 54.9898 12.1857C56.4617 12.9916 57.9262 13.8204 59.3119 14.7669C60.9016 15.8527 62.3925 17.0791 63.874 18.3085C64.6133 18.922 65.3247 19.5684 66.0359 20.2147C66.1955 20.3598 66.3552 20.5049 66.5152 20.6496C66.7387 20.8517 66.963 21.0531 67.1873 21.2544C68.017 21.9993 68.8469 22.7443 69.6366 23.5309C70.3625 24.254 71.049 25.0156 71.7352 25.7767C71.836 25.8886 71.9368 26.0004 72.0378 26.1121C72.2101 26.3029 72.3834 26.493 72.5566 26.6832C73.2623 27.4578 73.9684 28.2327 74.6189 29.0535C75.5813 30.2675 76.4519 31.5523 77.3202 32.8352C78.1727 34.0947 78.9842 35.3818 79.7813 36.677C80.5854 37.9834 81.3651 39.3049 82.1224 40.6389C82.4507 41.2171 82.6147 41.5233 82.8681 41.9966C83.0908 42.4127 83.3827 42.9577 83.916 43.9301C85.1446 46.1702 87.4649 50.7235 87.4649 50.7235C87.4649 50.7235 85.8036 46.0186 84.8837 43.7003C84.2819 42.1837 83.657 40.6747 82.9628 39.1982C82.3307 37.8538 81.6344 36.5399 80.9219 35.2364C80.5068 34.4769 80.0669 33.7314 79.6271 32.9858C79.3972 32.5961 79.1673 32.2064 78.941 31.8148C78.7343 31.4572 78.5307 31.0978 78.3271 30.7385C77.9385 30.0526 77.5499 29.3667 77.1401 28.6933C76.9009 28.3003 76.7235 28.0306 76.5092 27.7049C76.2917 27.3743 76.0361 26.986 75.6394 26.3522C74.7122 24.871 72.9982 22.6905 72.9982 22.6905C72.9982 22.6905 71.4833 20.8088 70.6571 19.9292C69.6689 18.8772 68.602 17.9007 67.5357 16.9279C66.5191 16.0005 65.4936 15.08 64.4142 14.2266C63.5822 13.5688 62.7284 12.9344 61.833 12.3657C61.0228 11.8511 60.173 11.4023 59.3237 10.9537C59.0793 10.8246 58.8349 10.6955 58.5915 10.5649C58.1624 10.3346 57.736 10.0983 57.3095 9.86194C56.0977 9.19038 54.8852 8.51839 53.6092 7.98371C51.7067 7.18649 49.7208 6.5897 47.7265 6.06281C45.5942 5.49951 43.4281 5.04394 41.2435 4.7422C39.3554 4.48141 37.4457 4.38796 35.5408 4.32201C33.3031 4.24453 28.8237 4.35113 28.8237 4.35113C28.8237 4.35113 32.9763 2.36363 35.1806 1.74081C36.6297 1.3314 38.1383 1.16456 39.6367 0.998846C39.7522 0.986079 39.8676 0.973318 39.9829 0.960453C41.9353 0.742598 43.9012 0.62432 45.8656 0.600282C48.0479 0.573584 50.2329 0.669696 52.4086 0.840393C54.0763 0.971225 55.7467 1.13307 57.391 1.44068C59.2991 1.79764 61.1787 2.30883 63.0336 2.88134C64.8239 3.43392 66.5982 4.05412 68.316 4.80223C70.1292 5.59188 71.8925 6.5031 73.5985 7.50348C75.341 8.52529 77.0002 9.68649 78.6408 10.865C79.5445 11.5142 80.4209 12.2014 81.282 12.906C82.6544 14.0288 85.3039 16.3876 85.3039 16.3876C85.3039 16.3876 87.9887 19.1897 89.2657 20.6496C90.6135 22.1903 93.1675 25.3918 93.1675 25.3918C93.1675 25.3918 91.1796 21.6658 89.9861 19.9292C89.1719 18.7446 88.2265 17.6538 87.2848 16.5677C86.4594 15.6157 85.5849 14.7069 84.7036 13.8064C83.8822 12.967 83.0564 12.1298 82.1825 11.3453C81.4104 10.6521 80.6088 9.99036 79.7813 9.36435C78.5198 8.40995 77.2099 7.51894 75.8795 6.6631C74.9945 6.09371 74.084 5.56506 73.1737 5.03647C72.8478 4.84724 72.5219 4.65801 72.1972 4.46693L72.1322 4.42866C70.8062 3.64828 69.48 2.86782 68.1402 2.11127C66.8667 1.39217 64.2942 0 64.2942 0C64.2942 0 67.4784 0.168639 69.0364 0.480232C70.4793 0.76882 71.8761 1.25789 73.2662 1.74462C73.377 1.78342 73.4877 1.8222 73.5985 1.86087C74.9806 2.34344 76.351 2.86854 77.6804 3.48162C79.119 4.14509 80.5254 4.88495 81.8823 5.70265C83.2513 6.52762 84.5751 7.43212 85.8441 8.4039C87.3088 9.5255 88.7117 10.7318 90.0461 12.0056C91.0157 12.9311 91.9172 13.9245 92.8185 14.9177C93.1736 15.3091 93.5287 15.7004 93.8879 16.0875C94.1527 16.3729 94.4247 16.6524 94.6966 16.932C95.3151 17.5677 95.9338 18.2036 96.4691 18.9088C97.522 20.2958 98.3961 21.8085 99.2687 23.3188C99.4951 23.7105 99.7214 24.1021 99.9507 24.4914C100.118 24.7752 100.287 25.0583 100.455 25.3416C101.237 26.6528 102.02 27.9662 102.652 29.3536C103.469 31.1459 104.078 33.0262 104.686 34.9011C104.748 35.093 104.811 35.2848 104.873 35.4765C105.408 37.1204 105.926 38.7739 106.314 40.4588C106.737 42.299 107.028 44.1692 107.274 46.0414C107.447 47.3561 107.554 48.6796 107.634 50.0032C107.752 51.9415 107.814 55.8259 107.814 55.8259C107.814 55.8259 108.591 53.8032 108.895 52.7645C109.068 52.1728 109.209 51.5708 109.315 50.9636C109.489 49.9699 109.587 48.9649 109.686 47.9602C109.721 47.6005 109.757 47.2408 109.795 46.8817C109.905 45.8623 110.095 43.8203 110.095 43.8203C110.095 43.8203 113.106 46.5831 114.417 48.1423C115.268 49.1535 116.017 50.2519 116.698 51.3838C117.358 52.4802 117.992 53.6065 118.439 54.8054L118.482 54.9191C119.222 56.9029 119.963 58.8889 120 61.0878C119.17 66.8607 116.718 71.4824 112.832 75.5575C112.117 76.475 112.043 76.5444 108.774 79.5672C108.491 79.8294 108.183 80.1137 107.85 80.4228L102.973 83.7916L96.6492 86.8003L90.6464 88.7212L86.2643 89.6816L80.4416 90.462L74.4989 90.8221L68.5561 90.582L61.833 90.1018L53.5492 88.7212L45.8656 86.8603L37.0415 84.159L29.7181 81.2777L24.4357 78.9967L18.1327 75.5751L12.4301 71.8533L7.32773 68.2517L3.30586 64.0497C2.34595 62.9681 1.4514 61.7559 0.604613 60.4481Z" fill="white"/>
<path fill-rule="evenodd" clip-rule="evenodd" d="M184.84 17.28C184.84 20.4267 183.96 23.3333 182.2 26C180.44 28.6667 177.533 30.6933 173.48 32.08L182.76 56H164.92L157.88 33.84H157L152.28 56H135L145.8 5.2H166.84C169.293 5.2 171.613 5.36 173.8 5.68C175.987 5.94667 177.88 6.53333 179.48 7.44C181.133 8.29333 182.44 9.52 183.4 11.12C184.36 12.6667 184.84 14.72 184.84 17.28ZM161.8 28.72C163.187 28.72 164.36 28.2667 165.32 27.36C166.333 26.4 167.133 25.2533 167.72 23.92C168.36 22.5867 168.813 21.1733 169.08 19.68C169.347 18.1333 169.48 16.8 169.48 15.68C169.48 14.2933 169.24 13.12 168.76 12.16C168.28 11.1467 167.24 10.64 165.64 10.64H162.04L158.04 28.72H161.8Z" fill="white"/>
<path fill-rule="evenodd" clip-rule="evenodd" d="M234.665 16.8C234.665 18.3467 234.425 19.7333 233.945 20.96C233.518 22.1867 232.905 23.28 232.105 24.24C231.305 25.2 230.372 26.0533 229.305 26.8C228.238 27.5467 227.065 28.24 225.785 28.88C226.372 29.0933 227.065 29.44 227.865 29.92C228.665 30.3467 229.438 30.96 230.185 31.76C230.932 32.56 231.545 33.6 232.025 34.88C232.558 36.1067 232.825 37.6267 232.825 39.44C232.825 41.84 232.318 44.0533 231.305 46.08C230.292 48.1067 228.772 49.8667 226.745 51.36C224.772 52.8 222.318 53.9467 219.385 54.8C216.505 55.6 213.172 56 209.385 56H185.625L196.425 5.2H217.465C219.545 5.2 221.598 5.36 223.625 5.68C225.705 5.94667 227.545 6.50666 229.145 7.36C230.798 8.21333 232.132 9.41333 233.145 10.96C234.158 12.4533 234.665 14.4 234.665 16.8ZM212.905 26.48C214.078 26.48 215.065 26.1333 215.865 25.44C216.718 24.7467 217.412 23.8933 217.945 22.88C218.478 21.8133 218.878 20.6933 219.145 19.52C219.412 18.2933 219.545 17.2 219.545 16.24C219.545 14.6933 219.172 13.3867 218.425 12.32C217.732 11.2 216.612 10.64 215.065 10.64H212.665L209.225 26.48H212.905ZM207.145 50.96C208.745 50.96 210.078 50.5067 211.145 49.6C212.212 48.6933 213.092 47.5733 213.785 46.24C214.478 44.9067 214.958 43.52 215.225 42.08C215.545 40.5867 215.705 39.28 215.705 38.16C215.705 36.2933 215.305 34.8267 214.505 33.76C213.758 32.64 212.532 32.08 210.825 32.08H207.865L203.945 50.96H207.145Z" fill="white"/>
<path fill-rule="evenodd" clip-rule="evenodd" d="M282.591 26C284.351 23.3333 285.231 20.4267 285.231 17.28C285.231 14.72 284.751 12.6667 283.791 11.12C282.831 9.52 281.524 8.29333 279.871 7.44C278.271 6.53333 276.377 5.94667 274.191 5.68C272.004 5.36 269.684 5.2 267.231 5.2H246.191L235.391 56H252.671L257.391 33.84H258.271L265.311 56H283.151L273.871 32.08C277.924 30.6933 280.831 28.6667 282.591 26ZM265.711 27.36C264.751 28.2667 263.577 28.72 262.191 28.72H258.431L262.431 10.64H266.031C267.631 10.64 268.671 11.1467 269.151 12.16C269.631 13.12 269.871 14.2933 269.871 15.68C269.871 16.8 269.737 18.1333 269.471 19.68C269.204 21.1733 268.751 22.5867 268.111 23.92C267.524 25.2533 266.724 26.4 265.711 27.36Z" fill="white"/>
<path d="M138.78 61.22H150.568L150.12 63.348H144.408L143.232 68.752H148.02L147.572 70.852H142.784L141.496 76.844H147.208L146.788 79H135L138.78 61.22Z" fill="white"/>
<path d="M157.902 67.716C157.417 68.0333 156.978 68.3787 156.586 68.752H156.418L155.914 66.96H151.35L148.802 79H154.514L156.362 70.292C156.53 70.124 156.763 69.9187 157.062 69.676C157.379 69.4333 157.706 69.312 158.042 69.312C158.322 69.312 158.527 69.4053 158.658 69.592C158.807 69.76 158.882 69.984 158.882 70.264C158.882 70.4693 158.854 70.7027 158.798 70.964C158.742 71.2067 158.695 71.4493 158.658 71.692L157.118 79H162.802L163.978 73.54C164.034 73.2413 164.099 72.9053 164.174 72.532C164.267 72.14 164.351 71.7573 164.426 71.384C164.501 71.0107 164.566 70.656 164.622 70.32C164.678 69.9653 164.706 69.6667 164.706 69.424C164.706 68.5653 164.389 67.8933 163.754 67.408C163.119 66.904 162.317 66.652 161.346 66.652C160.637 66.652 159.993 66.764 159.414 66.988C158.835 67.212 158.331 67.4547 157.902 67.716Z" fill="white"/>
<path fill-rule="evenodd" clip-rule="evenodd" d="M176.912 66.96H181.448L179.152 77.852C178.984 78.692 178.704 79.4667 178.312 80.176C177.92 80.8853 177.37 81.5013 176.66 82.024C175.97 82.5467 175.092 82.9573 174.028 83.256C172.983 83.5547 171.704 83.704 170.192 83.704C169.912 83.704 169.576 83.6947 169.184 83.676C168.792 83.676 168.391 83.6667 167.98 83.648C167.57 83.648 167.178 83.6387 166.804 83.62C166.431 83.6013 166.132 83.5827 165.908 83.564L166.44 81.548C167.038 81.6413 167.644 81.688 168.26 81.688C168.895 81.7067 169.436 81.716 169.884 81.716C170.444 81.716 170.911 81.66 171.284 81.548C171.676 81.4547 171.994 81.296 172.236 81.072C172.498 80.848 172.703 80.5493 172.852 80.176C173.02 79.8027 173.151 79.3453 173.244 78.804L173.58 76.984H173.384C173.272 77.152 173.104 77.3573 172.88 77.6C172.675 77.824 172.404 78.048 172.068 78.272C171.732 78.4773 171.331 78.6547 170.864 78.804C170.416 78.9347 169.903 79 169.324 79C168.671 79 168.111 78.9067 167.644 78.72C167.196 78.5147 166.832 78.244 166.552 77.908C166.272 77.5533 166.067 77.1427 165.936 76.676C165.806 76.1907 165.74 75.668 165.74 75.108C165.74 74.8653 165.759 74.492 165.796 73.988C165.834 73.484 165.918 72.9147 166.048 72.28C166.198 71.6453 166.403 71.0013 166.664 70.348C166.944 69.676 167.308 69.0693 167.756 68.528C168.223 67.9867 168.792 67.5387 169.464 67.184C170.155 66.8293 170.986 66.652 171.956 66.652C172.255 66.652 172.582 66.68 172.936 66.736C173.291 66.792 173.636 66.8947 173.972 67.044C174.308 67.1933 174.607 67.408 174.868 67.688C175.13 67.968 175.335 68.332 175.484 68.78H175.652L176.912 66.96ZM173.776 69.396C173.328 69.396 172.955 69.6387 172.656 70.124C172.358 70.5907 172.115 71.1413 171.928 71.776C171.742 72.4107 171.602 73.0453 171.508 73.68C171.434 74.296 171.396 74.7533 171.396 75.052C171.396 75.4253 171.452 75.7427 171.564 76.004C171.695 76.2467 171.919 76.368 172.236 76.368C172.423 76.368 172.6 76.3213 172.768 76.228C172.955 76.1347 173.123 76.032 173.272 75.92C173.44 75.7893 173.58 75.6587 173.692 75.528C173.823 75.3973 173.916 75.2947 173.972 75.22L175.008 70.32C174.859 70.1147 174.682 69.9093 174.476 69.704C174.29 69.4987 174.056 69.396 173.776 69.396Z" fill="white"/>
<path fill-rule="evenodd" clip-rule="evenodd" d="M187.612 74.548C187.649 74.1747 187.705 73.7827 187.78 73.372H195.648C195.946 72.9613 196.17 72.4667 196.32 71.888C196.469 71.2907 196.544 70.74 196.544 70.236C196.544 69.004 196.068 68.0987 195.116 67.52C194.182 66.9413 192.782 66.652 190.916 66.652C189.198 66.652 187.761 66.8573 186.604 67.268C185.465 67.6787 184.55 68.2293 183.86 68.92C183.188 69.592 182.702 70.3667 182.404 71.244C182.124 72.1213 181.984 73.0173 181.984 73.932C181.984 74.94 182.152 75.7893 182.488 76.48C182.842 77.152 183.318 77.6933 183.916 78.104C184.513 78.5147 185.213 78.804 186.016 78.972C186.818 79.14 187.686 79.224 188.62 79.224C189.124 79.224 189.656 79.196 190.216 79.14C190.776 79.1027 191.326 79.0373 191.868 78.944C192.409 78.832 192.922 78.692 193.408 78.524C193.893 78.356 194.322 78.1507 194.696 77.908L195.424 74.912H190.832C190.72 75.2853 190.561 75.6213 190.356 75.92C190.169 76.2187 189.964 76.4707 189.74 76.676C189.534 76.8813 189.32 77.04 189.096 77.152C188.89 77.264 188.704 77.32 188.536 77.32C188.312 77.32 188.134 77.264 188.004 77.152C187.892 77.0213 187.798 76.872 187.724 76.704C187.668 76.5173 187.63 76.3213 187.612 76.116C187.593 75.9107 187.584 75.724 187.584 75.556C187.584 75.2573 187.593 74.9213 187.612 74.548ZM189.712 68.864C189.973 68.6587 190.253 68.556 190.552 68.556C190.813 68.556 191.037 68.6587 191.224 68.864C191.41 69.0693 191.504 69.4613 191.504 70.04C191.504 70.2453 191.485 70.4693 191.448 70.712C191.429 70.9547 191.401 71.1787 191.364 71.384C191.326 71.6267 191.289 71.86 191.252 72.084H188.06C188.172 71.6173 188.312 71.1787 188.48 70.768C188.648 70.3387 188.834 69.9653 189.04 69.648C189.245 69.312 189.469 69.0507 189.712 68.864Z" fill="white"/>
<path d="M204.492 68.752C204.884 68.3787 205.323 68.0333 205.808 67.716C206.238 67.4547 206.742 67.212 207.32 66.988C207.899 66.764 208.543 66.652 209.252 66.652C210.223 66.652 211.026 66.904 211.66 67.408C212.295 67.8933 212.612 68.5653 212.612 69.424C212.612 69.6667 212.584 69.9653 212.528 70.32C212.472 70.656 212.407 71.0107 212.332 71.384C212.258 71.7573 212.174 72.14 212.08 72.532C212.006 72.9053 211.94 73.2413 211.884 73.54L210.708 79H205.024L206.564 71.692C206.602 71.4493 206.648 71.2067 206.704 70.964C206.76 70.7027 206.788 70.4693 206.788 70.264C206.788 69.984 206.714 69.76 206.564 69.592C206.434 69.4053 206.228 69.312 205.948 69.312C205.612 69.312 205.286 69.4333 204.968 69.676C204.67 69.9187 204.436 70.124 204.268 70.292L202.42 79H196.708L199.256 66.96H203.82L204.324 68.752H204.492Z" fill="white"/>
<path d="M221.207 68.752H221.011L222.831 60.184H217.091L213.115 79H218.827L220.675 70.32C220.843 70.1333 221.076 69.9187 221.375 69.676C221.692 69.4333 222.019 69.312 222.355 69.312C222.635 69.312 222.84 69.4053 222.971 69.592C223.12 69.76 223.195 69.984 223.195 70.264C223.195 70.4693 223.167 70.7027 223.111 70.964C223.055 71.2067 223.008 71.4493 222.971 71.692L221.431 79H227.115L228.291 73.54C228.347 73.2413 228.412 72.9147 228.487 72.56C228.58 72.1867 228.664 71.8227 228.739 71.468C228.813 71.0947 228.879 70.7493 228.935 70.432C228.991 70.096 229.019 69.7973 229.019 69.536C229.019 68.6773 228.701 68.0053 228.067 67.52C227.432 67.016 226.629 66.764 225.659 66.764C224.987 66.764 224.38 66.8667 223.839 67.072C223.297 67.2773 222.831 67.5107 222.439 67.772C221.972 68.0707 221.561 68.3973 221.207 68.752Z" fill="white"/>
<path fill-rule="evenodd" clip-rule="evenodd" d="M231.817 67.996C232.769 67.5293 233.739 67.1933 234.729 66.988C235.737 66.764 236.857 66.652 238.089 66.652C239.283 66.652 240.273 66.7453 241.057 66.932C241.841 67.1187 242.466 67.3893 242.933 67.744C243.399 68.0987 243.726 68.5187 243.913 69.004C244.099 69.4893 244.193 70.04 244.193 70.656C244.193 71.0107 244.165 71.3933 244.109 71.804C244.071 72.2147 244.025 72.56 243.969 72.84L242.653 79H238.145L237.641 77.208H237.473C236.875 77.8613 236.175 78.3653 235.373 78.72C234.589 79.056 233.805 79.224 233.021 79.224C232.573 79.224 232.134 79.1587 231.705 79.028C231.275 78.8973 230.893 78.7013 230.557 78.44C230.221 78.16 229.95 77.8147 229.745 77.404C229.539 76.9747 229.437 76.4613 229.437 75.864C229.437 74.8933 229.698 74.128 230.221 73.568C230.762 72.9893 231.462 72.56 232.321 72.28C233.198 71.9813 234.178 71.7947 235.261 71.72C236.362 71.6453 237.463 71.608 238.565 71.608C238.602 71.4213 238.649 71.16 238.705 70.824C238.761 70.4693 238.789 70.1613 238.789 69.9C238.789 69.564 238.695 69.256 238.509 68.976C238.341 68.6773 237.977 68.528 237.417 68.528C236.763 68.528 236.278 68.724 235.961 69.116C235.662 69.4893 235.466 69.9467 235.373 70.488H231.285L231.817 67.996ZM238.257 72.924H237.753C237.211 72.924 236.745 72.9987 236.353 73.148C235.979 73.2787 235.671 73.456 235.429 73.68C235.205 73.904 235.037 74.156 234.925 74.436C234.813 74.716 234.757 74.996 234.757 75.276C234.757 75.724 234.869 76.06 235.093 76.284C235.335 76.508 235.615 76.62 235.933 76.62C236.325 76.62 236.707 76.48 237.081 76.2C237.473 75.92 237.715 75.5467 237.809 75.08L238.257 72.924Z" fill="white"/>
<path d="M252.082 66.96H247.518L244.97 79H250.682L252.474 70.628C252.698 70.348 252.913 70.1707 253.118 70.096C253.342 70.0027 253.547 69.956 253.734 69.956C254.107 69.956 254.378 70.1893 254.546 70.656C254.714 71.104 254.817 71.9067 254.854 73.064H257.906L259.138 67.296C258.933 67.1467 258.718 67.0347 258.494 66.96C258.289 66.8667 258.083 66.8013 257.878 66.764C257.691 66.708 257.514 66.68 257.346 66.68C257.197 66.6613 257.085 66.652 257.01 66.652C255.909 66.652 255.022 66.8853 254.35 67.352C253.678 67.8187 253.127 68.388 252.698 69.06H252.502L252.082 66.96Z" fill="white"/>
<path d="M264.189 79H258.505L261.053 66.96H266.793L264.189 79Z" fill="white"/>
<path d="M267.241 64.412C267.428 64.0947 267.521 63.7213 267.521 63.292C267.521 62.5453 267.269 61.9947 266.765 61.64C266.261 61.2853 265.645 61.108 264.917 61.108C264.506 61.108 264.105 61.164 263.713 61.276C263.34 61.388 263.004 61.556 262.705 61.78C262.425 61.9853 262.201 62.256 262.033 62.592C261.865 62.9093 261.781 63.2733 261.781 63.684C261.781 64.4493 262.033 65.0093 262.537 65.364C263.041 65.7187 263.667 65.896 264.413 65.896C264.805 65.896 265.188 65.84 265.561 65.728C265.935 65.616 266.261 65.448 266.541 65.224C266.84 65 267.073 64.7293 267.241 64.412Z" fill="white"/>
<path fill-rule="evenodd" clip-rule="evenodd" d="M269.004 67.996C269.956 67.5293 270.927 67.1933 271.916 66.988C272.924 66.764 274.044 66.652 275.276 66.652C276.471 66.652 277.46 66.7453 278.244 66.932C279.028 67.1187 279.654 67.3893 280.12 67.744C280.587 68.0987 280.914 68.5187 281.1 69.004C281.287 69.4893 281.38 70.04 281.38 70.656C281.38 71.0107 281.352 71.3933 281.296 71.804C281.259 72.2147 281.212 72.56 281.156 72.84L279.84 79H275.332L274.828 77.208H274.66C274.063 77.8613 273.363 78.3653 272.56 78.72C271.776 79.056 270.992 79.224 270.208 79.224C269.76 79.224 269.322 79.1587 268.892 79.028C268.463 78.8973 268.08 78.7013 267.744 78.44C267.408 78.16 267.138 77.8147 266.932 77.404C266.727 76.9747 266.624 76.4613 266.624 75.864C266.624 74.8933 266.886 74.128 267.408 73.568C267.95 72.9893 268.65 72.56 269.508 72.28C270.386 71.9813 271.366 71.7947 272.448 71.72C273.55 71.6453 274.651 71.608 275.752 71.608C275.79 71.4213 275.836 71.16 275.892 70.824C275.948 70.4693 275.976 70.1613 275.976 69.9C275.976 69.564 275.883 69.256 275.696 68.976C275.528 68.6773 275.164 68.528 274.604 68.528C273.951 68.528 273.466 68.724 273.148 69.116C272.85 69.4893 272.654 69.9467 272.56 70.488H268.472L269.004 67.996ZM275.444 72.924H274.94C274.399 72.924 273.932 72.9987 273.54 73.148C273.167 73.2787 272.859 73.456 272.616 73.68C272.392 73.904 272.224 74.156 272.112 74.436C272 74.716 271.944 74.996 271.944 75.276C271.944 75.724 272.056 76.06 272.28 76.284C272.523 76.508 272.803 76.62 273.12 76.62C273.512 76.62 273.895 76.48 274.268 76.2C274.66 75.92 274.903 75.5467 274.996 75.08L275.444 72.924Z" fill="white"/>
</svg>
